<svg width="21" height="19" viewBox="0 0 21 19" fill="none" xmlns="http://www.w3.org/2000/svg">
<path d="M14.7542 11.7695C14.3721 11.3644 13.9111 11.1479 13.4226 11.1479C12.938 11.1479 12.4731 11.3604 12.0752 11.7655L10.8303 13.0286C10.7278 12.9725 10.6254 12.9204 10.5269 12.8682C10.3851 12.796 10.2511 12.7279 10.1369 12.6557C8.97072 11.9018 7.91093 10.9193 6.89448 9.64813C6.40201 9.01453 6.07108 8.48119 5.83075 7.93983C6.15381 7.63908 6.45323 7.32629 6.74477 7.02553C6.85508 6.91325 6.96539 6.79696 7.07571 6.68468C7.90305 5.84256 7.90305 4.75182 7.07571 3.9097L6.00016 2.81495C5.87803 2.69064 5.75196 2.56231 5.63377 2.43399C5.39738 2.18537 5.14918 1.92872 4.8931 1.68811C4.51094 1.30315 4.05393 1.09863 3.57329 1.09863C3.09264 1.09863 2.62775 1.30315 2.23378 1.68811C2.22984 1.69212 2.22984 1.69212 2.2259 1.69613L0.886391 3.07159C0.382106 3.58488 0.0945059 4.21046 0.0314702 4.93628C-0.0630833 6.10722 0.275733 7.19797 0.535756 7.91176C1.17399 9.66417 2.12741 11.2882 3.54965 13.0286C5.27525 15.1259 7.35149 16.7821 9.7232 17.949C10.6293 18.3861 11.8388 18.9034 13.1902 18.9916C13.2729 18.9956 13.3596 18.9996 13.4384 18.9996C14.3484 18.9996 15.1128 18.6668 15.7116 18.0051C15.7155 17.9971 15.7234 17.9931 15.7274 17.9851C15.9322 17.7325 16.1686 17.5039 16.4168 17.2593C16.5862 17.0948 16.7596 16.9224 16.929 16.742C17.319 16.3289 17.5239 15.8477 17.5239 15.3545C17.5239 14.8572 17.3151 14.38 16.9172 13.979L14.7542 11.7695ZM16.1647 15.9921C16.1607 15.9921 16.1607 15.9961 16.1647 15.9921C16.011 16.1605 15.8534 16.3129 15.684 16.4813C15.4279 16.7299 15.1679 16.9906 14.9236 17.2833C14.5257 17.7164 14.0569 17.9209 13.4423 17.9209C13.3832 17.9209 13.3202 17.9209 13.2611 17.9169C12.091 17.8407 11.0036 17.3756 10.1881 16.9786C7.95821 15.8798 6.00016 14.3199 4.37305 12.3429C3.0296 10.6948 2.13135 9.17093 1.53645 7.53481C1.17005 6.5363 1.0361 5.75835 1.0952 5.0245C1.13459 4.55532 1.31188 4.16635 1.63888 3.83351L2.98233 2.46607C3.17537 2.28161 3.38024 2.18135 3.58117 2.18135C3.82937 2.18135 4.0303 2.33374 4.15637 2.46206C4.16031 2.46607 4.16425 2.47008 4.16819 2.47409C4.40851 2.70267 4.63701 2.93926 4.87734 3.1919C4.99947 3.32022 5.12554 3.44854 5.25161 3.58087L6.32716 4.67563C6.74477 5.10069 6.74477 5.49368 6.32716 5.91875C6.21291 6.03504 6.10259 6.15134 5.98834 6.26362C5.6574 6.60848 5.34223 6.92929 4.99947 7.24208C4.99159 7.2501 4.98371 7.25411 4.97977 7.26213C4.64095 7.607 4.70399 7.94384 4.7749 8.17242C4.77884 8.18445 4.78278 8.19648 4.78672 8.20851C5.06644 8.89824 5.46042 9.54787 6.05926 10.3218L6.0632 10.3258C7.15056 11.6893 8.29702 12.7519 9.56168 13.566C9.72321 13.6702 9.88867 13.7545 10.0463 13.8347C10.1881 13.9068 10.322 13.975 10.4363 14.0472C10.4521 14.0552 10.4678 14.0672 10.4836 14.0753C10.6175 14.1434 10.7436 14.1755 10.8736 14.1755C11.2006 14.1755 11.4055 13.967 11.4724 13.8988L12.8198 12.5274C12.9538 12.391 13.1665 12.2266 13.4147 12.2266C13.659 12.2266 13.8599 12.383 13.9821 12.5193C13.986 12.5234 13.986 12.5234 13.9899 12.5274L16.1607 14.7369C16.5665 15.1459 16.5665 15.567 16.1647 15.9921Z" fill="#2C376D"/>
<path d="M10.0898 4.51924C11.122 4.69569 12.0596 5.19294 12.8082 5.95485C13.5567 6.71677 14.0413 7.67117 14.2186 8.72181C14.2619 8.98647 14.4865 9.17094 14.7426 9.17094C14.7741 9.17094 14.8017 9.16693 14.8332 9.16292C15.1247 9.1148 15.3178 8.83409 15.2705 8.53734C15.0578 7.26615 14.4668 6.10723 13.5646 5.18893C12.6624 4.27062 11.5238 3.6691 10.2749 3.45256C9.9834 3.40444 9.71156 3.60093 9.66034 3.89367C9.60912 4.18641 9.79823 4.47112 10.0898 4.51924Z" fill="#2C376D"/>
<path d="M18.6467 8.3813C18.296 6.28804 17.3269 4.38325 15.8376 2.86744C14.3484 1.35163 12.477 0.365151 10.4205 0.00825334C10.1329 -0.0438777 9.86107 0.156626 9.80985 0.449362C9.76257 0.746108 9.95562 1.0228 10.2472 1.07494C12.0831 1.39173 13.7575 2.27796 15.0891 3.62936C16.4207 4.98476 17.2875 6.68905 17.5987 8.55775C17.642 8.82241 17.8666 9.00688 18.1227 9.00688C18.1542 9.00688 18.1818 9.00287 18.2133 8.99886C18.5009 8.95475 18.6979 8.67404 18.6467 8.3813Z" fill="#2C376D"/>
</svg>
