<svg width="19" height="19" viewBox="0 0 19 19" fill="none" xmlns="http://www.w3.org/2000/svg">
<g clip-path="url(#clip0_156_2281)">
<path fill-rule="evenodd" clip-rule="evenodd" d="M15.8007 3.17258C14.1342 1.50418 11.918 0.584963 9.55696 0.583984C4.69179 0.583984 0.732244 4.54342 0.730288 9.40989C0.729635 10.9655 1.13603 12.4841 1.90847 13.8227L0.65625 18.3965L5.3354 17.169C6.6247 17.8724 8.0762 18.243 9.55337 18.2434H9.55706C14.4217 18.2434 18.3817 14.2836 18.3835 9.41696C18.3845 7.05841 17.4672 4.84087 15.8007 3.17258ZM9.55696 16.7528H9.55391C8.23754 16.7522 6.94651 16.3984 5.81996 15.7302L5.55219 15.5711L2.77551 16.2995L3.51664 13.5923L3.34215 13.3147C2.60775 12.1467 2.21995 10.7966 2.22061 9.41043C2.22213 5.36555 5.51327 2.07474 9.55989 2.07474C11.5194 2.07539 13.3615 2.83947 14.7465 4.22618C16.1316 5.61288 16.894 7.4561 16.8933 9.41641C16.8916 13.4616 13.6006 16.7528 9.55696 16.7528ZM13.5811 11.2582C13.3606 11.1478 12.2762 10.6144 12.074 10.5407C11.872 10.4671 11.7248 10.4304 11.5779 10.6511C11.4308 10.8718 11.0082 11.3687 10.8795 11.5158C10.7508 11.663 10.6223 11.6815 10.4017 11.571C10.1811 11.4607 9.47052 11.2277 8.62806 10.4763C7.97249 9.89152 7.52989 9.1693 7.40117 8.9486C7.27266 8.72768 7.40008 8.61983 7.49793 8.4985C7.73668 8.20202 7.97575 7.8912 8.04924 7.7441C8.12284 7.5969 8.08599 7.46806 8.03076 7.35771C7.97575 7.24736 7.53468 6.16181 7.35094 5.72008C7.17177 5.29021 6.9901 5.34826 6.85464 5.34152C6.72613 5.33511 6.57904 5.3338 6.43194 5.3338C6.28495 5.3338 6.04599 5.38892 5.84377 5.60984C5.64166 5.83065 5.07198 6.36413 5.07198 7.44969C5.07198 8.53525 5.86225 9.58395 5.97249 9.73116C6.08274 9.87836 7.52772 12.106 9.74004 13.0612C10.2662 13.2887 10.677 13.4242 10.9974 13.5259C11.5257 13.6937 12.0064 13.67 12.3865 13.6133C12.8103 13.5499 13.6912 13.0797 13.8752 12.5646C14.0589 12.0494 14.0589 11.6079 14.0037 11.5158C13.9487 11.4238 13.8016 11.3687 13.5811 11.2582Z" fill="#2C376D"/>
</g>
<defs>
<clipPath id="clip0_156_2281">
<rect width="19" height="19" fill="white"/>
</clipPath>
</defs>
</svg>
